<?xml version="1.0" encoding="utf-8"?>
<!-- Generator: Adobe Illustrator 16.0.3, SVG Export Plug-In . SVG Version: 6.00 Build 0)  -->
<!DOCTYPE svg PUBLIC "-//W3C//DTD SVG 1.1//EN" "http://www.w3.org/Graphics/SVG/1.1/DTD/svg11.dtd">
<svg version="1.1" id="Layer_1" xmlns="http://www.w3.org/2000/svg" xmlns:xlink="http://www.w3.org/1999/xlink" x="0px" y="0px"
	 width="1080px" height="380px" viewBox="0 349.5 1080 380" enable-background="new 0 349.5 1080 380" xml:space="preserve">
<g>
	<path fill="#FFFFFF" d="M468.109,420.297c0-20.166,10.94-38.092,32.163-38.092c9.751,0,17.527,3.696,23.071,9.75v-7.385h19.9
		v71.972h-19.9v-7.777c-5.536,6.063-13.313,9.884-23.071,9.884C479.057,458.648,468.109,440.456,468.109,420.297z M488.674,420.297
		c0,9.359,4.48,21.224,16.87,21.224s16.869-11.864,16.869-21.224c0-9.093-4.221-20.698-16.869-20.698
		C492.888,399.599,488.674,411.197,488.674,420.297z"/>
	<path fill="#FFFFFF" d="M555.242,384.57h19.9v12.131c4.479-8.568,11.864-14.504,22.938-14.504c2.107,0,5.404,0.266,5.404,0.266
		v20.299c0,0-5.796-0.658-8.435-0.658c-17.401,0-19.9,7.903-19.9,14.104v40.333h-19.9V384.57H555.242z"/>
	<path fill="#FFFFFF" d="M630.511,356.627v34.929l49.033,64.986h-24.121l-24.912-35.72v35.72h-19.9v-99.915H630.511z
		 M649.354,384.57h29.267l-15.421,16.078L649.354,384.57z"/>
	<path fill="#FFFFFF" d="M686.005,356.627h19.899v17.135h-19.899V356.627z M686.005,384.57h19.899v71.972h-19.899V384.57z"/>
	<path fill="#FFFFFF" d="M470.748,476.071h19.9v35.328c5.536-6.063,13.313-9.751,23.071-9.751c21.223,0,32.164,17.926,32.164,38.093
		c0,20.166-10.941,38.358-32.164,38.358c-9.751,0-17.527-3.822-23.071-9.884v7.777h-19.9V476.071z M491.572,539.734
		c0,9.358,4.479,21.223,16.869,21.223s16.869-11.864,16.869-21.223c0-9.093-4.214-20.698-16.869-20.698
		C495.793,519.043,491.572,530.642,491.572,539.734z"/>
	<path fill="#FFFFFF" d="M554.451,504.015h19.9v40.332c0,8.302,3.03,16.61,13.579,16.61c11.599,0,15.554-9.226,15.554-16.61v-40.332
		h19.907v71.971h-19.907v-6.853c-5.138,5.67-12.39,9.226-22.141,9.226c-19.375,0-26.886-13.838-26.886-28.733v-45.61H554.451z"/>
	<path fill="#FFFFFF" d="M635.382,476.071h19.9v17.136h-19.9V476.071z M635.382,504.015h19.9v71.971h-19.9V504.015z"/>
	<path fill="#FFFFFF" d="M667.28,575.985v-99.914h19.9v99.914H667.28z"/>
	<path fill="#FFFFFF" d="M696.546,539.734c0-20.167,10.94-38.093,32.164-38.093c9.751,0,17.527,3.695,23.071,9.75v-35.327h19.9
		v99.914h-19.907v-7.776c-5.537,6.062-13.313,9.884-23.071,9.884C707.486,578.093,696.546,559.9,696.546,539.734z M717.111,539.734
		c0,9.358,4.48,21.223,16.869,21.223c12.39,0,16.87-11.864,16.87-21.223c0-9.093-4.222-20.698-16.87-20.698
		C721.325,519.043,717.111,530.642,717.111,539.734z"/>
	<path fill="#FFFFFF" d="M783.672,476.071h19.9v17.136h-19.9V476.071z M783.672,504.015h19.9v71.971h-19.9V504.015z"/>
	<path fill="#FFFFFF" d="M815.57,504.015h19.9v6.853c5.145-5.663,12.39-9.226,22.28-9.226c19.242,0,26.76,13.838,26.76,28.733
		v45.604h-19.9v-40.332c0-8.302-3.031-16.61-13.446-16.61c-11.731,0-15.687,9.226-15.687,16.61v40.332h-19.9v-71.964H815.57z"/>
	<path fill="#FFFFFF" d="M893.078,539.734c0-20.433,11.34-38.093,31.639-38.093c8.834,0,15.82,3.297,20.958,8.833v-6.46h19.9v71.971
		c0,15.953-12.655,30.058-35.587,30.058c-16.078,0-28.734-8.96-32.689-20.698h21.615c2.373,4.088,5.404,7.251,12.656,7.251
		c11.073,0,14.104-9.226,14.104-16.61v-6.853c-5.146,5.537-12.131,8.96-20.957,8.96
		C904.418,578.093,893.078,560.166,893.078,539.734z M913.91,539.734c0,9.358,4.213,21.223,15.553,21.223
		c11.466,0,15.554-11.864,15.554-21.223c0-9.093-3.821-20.698-15.554-20.698C917.857,519.043,913.91,530.642,913.91,539.734z"/>
	<path fill="#FFFFFF" d="M526.634,673.94c0,16.345-14.896,23.855-29.392,23.855c-17.527,0-27.678-8.834-29-23.33h17.135
		c0.665,5.929,4.48,8.035,12.264,8.035c5.537,0,9.751-2.24,9.751-5.663c0-4.879-4.746-6.594-10.94-8.435
		c-11.599-3.563-27.685-6.194-27.685-23.596c0-16.079,14.238-23.729,28.608-23.729c19.242,0,26.361,10.675,27.152,23.33h-16.87
		c-0.524-5.67-3.821-8.043-10.541-8.043c-5.271,0-9.093,2.373-9.093,5.67c0,4.348,4.746,6.72,10.94,8.436
		C508.315,653.116,526.634,656.28,526.634,673.94z"/>
	<path fill="#FFFFFF" d="M535.076,623.458h19.899v40.333c0,8.302,3.031,16.61,13.58,16.61c11.599,0,15.554-9.226,15.554-16.61
		v-40.333h19.907v71.972h-19.907v-6.853c-5.139,5.67-12.39,9.226-22.141,9.226c-19.375,0-26.886-13.839-26.886-28.734v-45.61
		H535.076z"/>
	<path fill="#FFFFFF" d="M616.007,623.458h19.9v12.131c4.479-8.567,11.864-14.504,22.938-14.504c2.106,0,5.403,0.267,5.403,0.267
		v20.299c0,0-5.796-0.658-8.435-0.658c-17.401,0-19.9,7.903-19.9,14.104v40.333h-19.9v-71.972H616.007z"/>
	<path fill="#FFFFFF" d="M665.831,623.458h20.3l15.161,46.401l15.161-46.401h20.167l-23.464,71.972h-23.729L665.831,623.458z"/>
	<path fill="#FFFFFF" d="M810.174,673.94c-4.746,14.504-17.794,23.596-34.93,23.596c-24.52,0-37.435-17.926-37.435-38.092
		c0-19.908,12.655-38.093,37.176-38.093c22.273,0,36.511,16.869,36.511,35.72c0,2.373-0.392,4.745-0.658,7.251h-52.33
		c1.849,8.436,8.043,16.079,18.851,16.079c5.404,0,10.94-1.849,13.579-6.461H810.174L810.174,673.94z M790.532,648.896
		c-1.981-5.796-6.461-10.416-14.371-10.416c-8.042,0-13.313,4.613-15.952,10.416H790.532z"/>
	<path fill="#FFFFFF" d="M832.979,623.458l15.161,46.401l15.162-46.401h20.166l-26.361,80.806
		c-3.954,11.864-5.663,19.109-22.672,19.109h-14.763v-15.288h8.043c6.461,0,8.701-3.297,10.282-7.385l-25.311-77.242H832.979z"/>
	<path fill="#FFFFFF" d="M959.779,659.444c0,20.432-13.572,38.358-37.96,38.358c-24.521,0-37.176-18.192-37.176-38.358
		c0-20.167,12.655-38.093,37.176-38.093C946.207,621.352,959.779,639.012,959.779,659.444z M938.955,659.444
		c0-9.093-4.221-20.699-16.869-20.699c-12.656,0-16.87,11.599-16.87,20.699c0,9.358,4.48,21.223,16.87,21.223
		C934.475,680.667,938.955,668.803,938.955,659.444z"/>
	<path fill="#FFFFFF" d="M968.746,623.458h19.9v12.131c4.479-8.567,11.864-14.504,22.938-14.504c2.107,0,5.404,0.267,5.404,0.267
		v20.299c0,0-5.796-0.658-8.435-0.658c-17.401,0-19.9,7.903-19.9,14.104v40.333h-19.9v-71.972H968.746z"/>
	<path fill="#FFFFFF" d="M1080,673.94c0,16.345-14.896,23.855-29.392,23.855c-17.528,0-27.678-8.834-29-23.33h17.135
		c0.665,5.929,4.48,8.035,12.264,8.035c5.537,0,9.751-2.24,9.751-5.663c0-4.879-4.746-6.594-10.94-8.435
		c-11.599-3.563-27.685-6.194-27.685-23.596c0-16.079,14.237-23.729,28.608-23.729c19.242,0,26.361,10.675,27.151,23.33h-16.869
		c-0.524-5.67-3.821-8.043-10.541-8.043c-5.271,0-9.093,2.373-9.093,5.67c0,4.348,4.745,6.72,10.94,8.436
		C1061.675,653.116,1080,656.28,1080,673.94z"/>
</g>
<g>
	<g>
		<rect x="-0.196" y="462.61" fill="#0E80A2" width="106.109" height="266.047"/>
		<polygon fill="#1398C2" points="-0.196,462.61 278.185,462.61 278.185,728.58 389.845,616.92 389.845,351.342 111.079,351.342 		
			"/>
		<polygon fill="#096581" points="-0.196,728.511 105.528,621.106 278.185,621.106 172.306,728.657 		"/>
	</g>
</g>
</svg>
